# xmcd
#
# Track frame offsets:
#	150
#	13220
#	24887
#	37722
#	49320
#	61577
#	75377
#	83662
#	92192
#	103245
#	112920
#	126277
#	135532
#	145000
#	155877
#	166397
#	176902
#	189257
#	200447
#	211627
#
# Disc length: 2947 seconds
#
# Revision: 2
# Processed by: cddbd v1.5.2PL0 Copyright (c) Steve Scherf et al.
# Submitted via: EasyCDDAExtractor 5.0.6
#
DISCID=000b8114
DTITLE=Various Artist - Millionaires Only - Vol 1
DYEAR=1900
DGENRE=Blues
TTITLE0=Bobby Kline - Say Something Nice to Me
TTITLE1=Jimmy Wallace - I'll Be Back
TTITLE2=Gaylettes - Heartaches I Can't Take
TTITLE3=Soul Set - Will You Ever Learn
TTITLE4=Utopias - Girls Are Against Me
TTITLE5=Bobby Adams - That's the Kind of Man I Am
TTITLE6=Dogs - Soul Step
TTITLE7=Magnetics - Heart, Your're Made of Stone
TTITLE8=Tommy Ridgly - My Love Gets Stronger
TTITLE9=Tina Roberts - One Way or the Other
TTITLE10=Johnny Summers - I Can't Let Go
TTITLE11=Carol Fredricks - I Couldn't Care Less
TTITLE12=Souleettes - Bring Your Fine Self Home
TTITLE13=Colt 45's - Lady Lady
TTITLE14=William Powell - Heartache Souveinirs
TTITLE15=Eric Murcury and the Soul Searchers - Lonely Girl
TTITLE16=Joanne Courcey - I Got the Power
TTITLE17=Gene Toones - What More Do You Want
TTITLE18=Johnny Honeycutt - I'm Coming Over
TTITLE19=Antiques - Go for Yourself
EXTD=tim1701
EXTT0=
EXTT1=
EXTT2=
EXTT3=
EXTT4=
EXTT5=
EXTT6=
EXTT7=
EXTT8=
EXTT9=
EXTT10=
EXTT11=
EXTT12=
EXTT13=
EXTT14=
EXTT15=
EXTT16=
EXTT17=
EXTT18=
EXTT19=
PLAYORDER=
